CrispyThin100-MinGrade.ufo
<glyph name="six" format="2">
  <advance width="172"/>
  <unicode hex="0036"/>
  <outline>
    <contour>
      <point x="35" y="0" type="line"/>
      <point x="136" y="0" type="line"/>
      <point x="136" y="801" type="line"/>
      <point x="38" y="801" type="line"/>
      <point x="38" y="1437" type="line"/>
      <point x="73" y="1598" type="line"/>
      <point x="133" y="1598" type="line"/>
      <point x="133" y="1160" type="line"/>
      <point x="135" y="1160" type="line"/>
      <point x="135" y="1600" type="line"/>
      <point x="70" y="1600" type="line"/>
      <point x="35" y="1438" type="line"/>
    </contour>
    <contour>
      <point x="133" y="799" type="line"/>
      <point x="133" y="2" type="line"/>
      <point x="38" y="2" type="line"/>
      <point x="38" y="799" type="line"/>
    </contour>
  </outline>
</glyph>
<glyph name="question" format="2">
  <advance width="172"/>
  <unicode hex="003F"/>
  <outline>
    <contour>
      <point x="65" y="330" type="line"/>
      <point x="88" y="330" type="line"/>
      <point x="140" y="542" type="line"/>
      <point x="140" y="1600" type="line"/>
      <point x="47" y="1600" type="line"/>
      <point x="47" y="1147" type="line"/>
      <point x="50" y="1147" type="line"/>
      <point x="50" y="1598" type="line"/>
      <point x="137" y="1598" type="line"/>
      <point x="137" y="543" type="line"/>
      <point x="85" y="332" type="line"/>
      <point x="65" y="332" type="line"/>
    </contour>
    <contour>
      <point x="84" y="0" type="line"/>
      <point x="86" y="0" type="line"/>
      <point x="86" y="62" type="line"/>
      <point x="83" y="62" type="line"/>
    </contour>
  </outline>
</glyph>
<glyph name="A" format="2">
  <advance width="174"/>
  <unicode hex="0041"/>
  <outline>
    <contour>
      <point x="35" y="0" type="line"/>
      <point x="38" y="0" type="line"/>
      <point x="38" y="1436" type="line"/>
      <point x="73" y="1598" type="line"/>
      <point x="136" y="1598" type="line"/>
      <point x="136" y="0" type="line"/>
      <point x="139" y="0" type="line"/>
      <point x="139" y="1600" type="line"/>
      <point x="70" y="1600" type="line"/>
      <point x="35" y="1437" type="line"/>
    </contour>
    <contour>
      <point x="37" y="797" type="line"/>
      <point x="137" y="797" type="line"/>
      <point x="137" y="800" type="line"/>
      <point x="37" y="800" type="line"/>
    </contour>
  </outline>
</glyph>
<glyph name="C" format="2">
  <advance width="184"/>
  <unicode hex="0043"/>
  <outline>
    <contour>
      <point x="6" y="0" type="line"/>
      <point x="106" y="0" type="line"/>
      <point x="106" y="612" type="line"/>
      <point x="103" y="612" type="line"/>
      <point x="103" y="2" type="line"/>
      <point x="8" y="2" type="line"/>
      <point x="8" y="1436" type="line"/>
      <point x="43" y="1598" type="line"/>
      <point x="103" y="1598" type="line"/>
      <point x="103" y="990" type="line"/>
      <point x="106" y="990" type="line"/>
      <point x="106" y="1600" type="line"/>
      <point x="40" y="1600" type="line"/>
      <point x="6" y="1436" type="line"/>
    </contour>
  </outline>
</glyph>
<glyph name="E" format="2">
  <advance width="167"/>
  <unicode hex="0045"/>
  <outline>
    <contour>
      <point x="48" y="0" type="line"/>
      <point x="141" y="0" type="line"/>
      <point x="141" y="2" type="line"/>
      <point x="50" y="2" type="line"/>
      <point x="50" y="799" type="line"/>
      <point x="133" y="799" type="line"/>
      <point x="133" y="801" type="line"/>
      <point x="50" y="801" type="line"/>
      <point x="50" y="1598" type="line"/>
      <point x="140" y="1598" type="line"/>
      <point x="140" y="1600" type="line"/>
      <point x="48" y="1600" type="line"/>
    </contour>
  </outline>
</glyph>
<glyph name="O" format="2">
  <advance width="174"/>
  <unicode hex="004F"/>
  <outline>
    <contour>
      <point x="139" y="164" type="line"/>
      <point x="139" y="1600" type="line"/>
      <point x="70" y="1600" type="line"/>
      <point x="35" y="1437" type="line"/>
      <point x="35" y="0" type="line"/>
      <point x="104" y="0" type="line"/>
    </contour>
    <contour>
      <point x="136" y="164" type="line"/>
      <point x="101" y="2" type="line"/>
      <point x="38" y="2" type="line"/>
      <point x="38" y="1436" type="line"/>
      <point x="73" y="1598" type="line"/>
      <point x="136" y="1598" type="line"/>
    </contour>
  </outline>
</glyph>
<glyph name="a" format="2">
  <advance width="166"/>
  <unicode hex="0061"/>
  <outline>
    <contour>
      <point x="28" y="0" type="line"/>
      <point x="105" y="0" type="line"/>
      <point x="126" y="0" type="line"/>
      <point x="126" y="0" type="line"/>
      <point x="129" y="0" type="line"/>
      <point x="129" y="1200" type="line"/>
      <point x="69" y="1200" type="line"/>
      <point x="28" y="925" type="line"/>
    </contour>
    <contour>
      <point x="31" y="2" type="line"/>
      <point x="31" y="924" type="line"/>
      <point x="72" y="1198" type="line"/>
      <point x="126" y="1198" type="line"/>
      <point x="126" y="2" type="line"/>
    </contour>
  </outline>
</glyph>
<glyph name="d" format="2">
  <advance width="165"/>
  <unicode hex="0064"/>
  <outline>
    <contour>
      <point x="31" y="0" type="line"/>
      <point x="99" y="0" type="line"/>
      <point x="133" y="163" type="line"/>
      <point x="133" y="1700" type="line"/>
      <point x="131" y="1700" type="line"/>
      <point x="131" y="1200" type="line"/>
      <point x="66" y="1200" type="line"/>
      <point x="31" y="1038" type="line"/>
    </contour>
    <contour>
      <point x="34" y="2" type="line"/>
      <point x="34" y="1036" type="line"/>
      <point x="68" y="1198" type="line"/>
      <point x="131" y="1198" type="line"/>
      <point x="131" y="164" type="line"/>
      <point x="96" y="2" type="line"/>
    </contour>
  </outline>
</glyph>
<glyph name="e" format="2">
  <advance width="142"/>
  <unicode hex="0065"/>
  <outline>
    <contour>
      <point x="31" y="0" type="line"/>
      <point x="111" y="0" type="line"/>
      <point x="111" y="2" type="line"/>
      <point x="34" y="2" type="line"/>
      <point x="34" y="1036" type="line"/>
      <point x="68" y="1197" type="line"/>
      <point x="110" y="1197" type="line"/>
      <point x="110" y="534" type="line"/>
      <point x="35" y="534" type="line"/>
      <point x="33" y="533" type="line"/>
      <point x="33" y="532" type="line"/>
      <point x="113" y="532" type="line"/>
      <point x="113" y="1200" type="line"/>
      <point x="66" y="1200" type="line"/>
      <point x="31" y="1038" type="line"/>
    </contour>
  </outline>
</glyph>
<glyph name="f" format="2">
  <advance width="123"/>
  <unicode hex="0066"/>
  <outline>
    <contour>
      <point x="38" y="0" type="line"/>
      <point x="38" y="1530" type="line"/>
      <point x="92" y="1700" type="line"/>
      <point x="124" y="1700" type="line"/>
      <point x="124" y="1697" type="line"/>
      <point x="95" y="1697" type="line"/>
      <point x="40" y="1530" type="line"/>
      <point x="40" y="0" type="line"/>
    </contour>
    <contour>
      <point x="10" y="898" type="line"/>
      <point x="10" y="900" type="line"/>
      <point x="17" y="900" type="line"/>
      <point x="30" y="900" type="line"/>
      <point x="73" y="900" type="line"/>
      <point x="112" y="900" type="line"/>
      <point x="112" y="898" type="line"/>
    </contour>
  </outline>
</glyph>
<glyph name="h" format="2">
  <advance width="149"/>
  <unicode hex="0068"/>
  <outline>
    <contour>
      <point x="115" y="0" type="line"/>
      <point x="115" y="1198" type="line"/>
      <point x="31" y="1198" type="line"/>
      <point x="31" y="1200" type="line"/>
      <point x="75" y="1200" type="line"/>
      <point x="118" y="1200" type="line"/>
      <point x="118" y="0" type="line"/>
    </contour>
    <contour>
      <point x="29" y="0" type="line"/>
      <point x="29" y="1700" type="line"/>
      <point x="32" y="1700" type="line"/>
      <point x="32" y="0" type="line"/>
    </contour>
  </outline>
</glyph>
<glyph name="k" format="2">
  <advance width="159"/>
  <unicode hex="006B"/>
  <outline>
    <contour>
      <point x="38" y="709" type="line"/>
      <point x="128" y="709" type="line"/>
      <point x="128" y="0" type="line"/>
      <point x="131" y="0" type="line"/>
      <point x="131" y="711" type="line"/>
      <point x="71" y="711" type="line"/>
      <point x="72" y="711" type="line"/>
      <point x="121" y="1200" type="line"/>
      <point x="118" y="1200" type="line"/>
      <point x="70" y="711" type="line"/>
      <point x="38" y="711" type="line"/>
    </contour>
    <contour>
      <point x="36" y="0" type="line"/>
      <point x="39" y="0" type="line"/>
      <point x="39" y="1700" type="line"/>
      <point x="36" y="1700" type="line"/>
    </contour>
  </outline>
</glyph>
<glyph name="s" format="2">
  <advance width="121"/>
  <unicode hex="0073"/>
  <outline>
    <contour>
      <point x="26" y="0" type="line"/>
      <point x="60" y="0" type="line"/>
      <point x="95" y="163" type="line"/>
      <point x="95" y="611" type="line"/>
      <point x="28" y="611" type="line"/>
      <point x="28" y="1037" type="line"/>
      <point x="62" y="1198" type="line"/>
      <point x="95" y="1198" type="line"/>
      <point x="95" y="1200" type="line"/>
      <point x="60" y="1200" type="line"/>
      <point x="25" y="1039" type="line"/>
      <point x="25" y="609" type="line"/>
      <point x="92" y="609" type="line"/>
      <point x="92" y="165" type="line"/>
      <point x="57" y="2" type="line"/>
      <point x="26" y="2" type="line"/>
    </contour>
  </outline>
</glyph>
<glyph name="u" format="2">
  <advance width="164"/>
  <unicode hex="0075"/>
  <outline>
    <contour>
      <point x="36" y="0" type="line"/>
      <point x="99" y="0" type="line"/>
      <point x="133" y="162" type="line"/>
      <point x="133" y="1200" type="line"/>
      <point x="130" y="1200" type="line"/>
      <point x="130" y="164" type="line"/>
      <point x="96" y="2" type="line"/>
      <point x="39" y="2" type="line"/>
      <point x="39" y="1200" type="line"/>
      <point x="36" y="1200" type="line"/>
    </contour>
  </outline>
</glyph>
<glyph name="v" format="2">
  <advance width="147"/>
  <unicode hex="0076"/>
  <outline>
    <contour>
      <point x="36" y="0" type="line"/>
      <point x="97" y="0" type="line"/>
      <point x="133" y="1200" type="line"/>
      <point x="130" y="1200" type="line"/>
      <point x="95" y="2" type="line"/>
      <point x="39" y="2" type="line"/>
      <point x="39" y="1200" type="line"/>
      <point x="36" y="1200" type="line"/>
    </contour>
  </outline>
</glyph>
<glyph name="x" format="2">
  <advance width="145"/>
  <unicode hex="0078"/>
  <outline>
    <contour>
      <point x="-3" y="1200" type="line"/>
      <point x="-3" y="1198" type="line"/>
      <point x="27" y="1198" type="line"/>
      <point x="117" y="1" type="line"/>
      <point x="148" y="1" type="line"/>
      <point x="148" y="4" type="line"/>
      <point x="119" y="4" type="line"/>
      <point x="29" y="1200" type="line"/>
    </contour>
    <contour>
      <point x="29" y="-6" type="line"/>
      <point x="32" y="-6" type="line"/>
      <point x="73" y="595" type="line"/>
      <point x="70" y="595" type="line"/>
    </contour>
    <contour>
      <point x="73" y="606" type="line"/>
      <point x="76" y="606" type="line"/>
      <point x="114" y="1209" type="line"/>
      <point x="111" y="1209" type="line"/>
    </contour>
  </outline>
</glyph>
<glyph name="micro" format="2">
  <advance width="166"/>
  <unicode hex="00B5"/>
  <outline>
    <contour>
      <point x="36" y="-125" type="line"/>
      <point x="39" y="-125" type="line"/>
      <point x="39" y="0" type="line"/>
      <point x="127" y="0" type="line"/>
      <point x="127" y="0" type="line"/>
      <point x="130" y="0" type="line"/>
      <point x="130" y="1200" type="line"/>
      <point x="127" y="1200" type="line"/>
      <point x="127" y="2" type="line"/>
      <point x="39" y="2" type="line"/>
      <point x="39" y="1200" type="line"/>
      <point x="36" y="1200" type="line"/>
    </contour>
  </outline>
</glyph>
<glyph name="endash" format="2">
  <advance width="241"/>
  <unicode hex="2013"/>
  <outline>
    <contour>
      <point x="10" y="799" type="line"/>
      <point x="231" y="799" type="line"/>
      <point x="231" y="801" type="line"/>
      <point x="10" y="801" type="line"/>
    </contour>
  </outline>
</glyph>
<glyph name="emdash" format="2">
  <advance width="372"/>
  <unicode hex="2014"/>
  <outline>
    <contour>
      <point x="10" y="799" type="line"/>
      <point x="362" y="799" type="line"/>
      <point x="362" y="801" type="line"/>
      <point x="10" y="801" type="line"/>
    </contour>
  </outline>
</glyph>
<glyph name="L.wide" format="2">
  <advance width="140"/>
  <outline>
    <contour>
      <point x="48" y="0" type="line"/>
      <point x="48" y="1600" type="line"/>
      <point x="50" y="1600" type="line"/>
      <point x="50" y="2" type="line"/>
      <point x="127" y="2" type="line"/>
      <point x="127" y="0" type="line"/>
    </contour>
  </outline>
</glyph>
<glyph name="eight.smol" format="2">
  <advance width="107"/>
  <outline>
    <contour>
      <point x="17" y="0" type="line"/>
      <point x="90" y="0" type="line"/>
      <point x="90" y="469" type="line"/>
      <point x="66" y="497" type="line"/>
      <point x="66" y="496" type="line"/>
      <point x="87" y="496" type="line"/>
      <point x="87" y="995" type="line"/>
      <point x="20" y="995" type="line"/>
      <point x="20" y="524" type="line"/>
      <point x="41" y="498" type="line"/>
      <point x="41" y="498" type="line"/>
      <point x="17" y="498" type="line"/>
    </contour>
    <contour>
      <point x="20" y="2" type="line"/>
      <point x="20" y="496" type="line"/>
      <point x="65" y="496" type="line"/>
      <point x="87" y="468" type="line"/>
      <point x="87" y="2" type="line"/>
    </contour>
    <contour>
      <point x="43" y="498" type="line"/>
      <point x="23" y="525" type="line"/>
      <point x="23" y="993" type="line"/>
      <point x="84" y="993" type="line"/>
      <point x="84" y="498" type="line"/>
    </contour>
  </outline>
</glyph>
